<?xml version="1.0" encoding="UTF-8" standalone="no"?>
<!-- Created with Inkscape (http://www.inkscape.org/) -->

<svg
   width="1415"
   height="336.15393"
   viewBox="1 0 1415 336.15393"
   version="1.1"
   id="svg1"
   xml:space="preserve"
   xmlns:xlink="http://www.w3.org/1999/xlink"
   xmlns="http://www.w3.org/2000/svg"
   xmlns:svg="http://www.w3.org/2000/svg"><defs
     id="defs1"><rect
       x="102.93241"
       y="503.53424"
       width="1350.6403"
       height="58.421101"
       id="rect5" /><rect
       x="44.511314"
       y="321.31604"
       width="1032.1061"
       height="166.91743"
       id="rect1" /></defs><g
     id="layer4"
     style="display:none"
     transform="translate(-53.000003,-46.923032)"><path
       id="path1"
       style="display:inline;fill:#008c8c;stroke:none"
       d="m -1591.9832,-1794.2942 c -38.1314,0 -70.3217,29.1089 -75.2664,66.0333 l -106.8093,13.3523 c -41.477,4.921 -71.7028,43.5816 -66.0778,85.0586 l 66.9834,509.9964 h 28.631 l -67.4982,-513.512 c -3.515,-26.008 15.4652,-50.6144 41.4772,-53.4269 l 102.6368,-12.6509 v 579.5898 h 28.1161 v -595.7563 c 0,-0.096 0,-0.1975 0,-0.293 v -2.4325 c 0,-26.012 21.7952,-47.8072 47.8072,-47.8072 h 596.12919 c 26.715,0 48.5086,21.7952 48.5086,47.8072 v 598.4818 h 28.1161 v -579.5987 l 102.6367,12.6598 c 26.012,2.813 44.9929,27.4149 41.4773,53.4269 l -67.4983,513.512 h 28.2582 l 67.3651,-509.9964 c 5.621,-41.476 -24.6097,-80.1367 -66.0867,-85.0586 l -106.8004,-13.2724 c -4.9133,-36.962 -37.1712,-66.1132 -75.9766,-66.1132 z m 566.6104,96.0848 c -7.0302,0 -14.0625,4.7501 -14.0625,14.2401 v 374.6893 c 0,7.7309 6.3281,14.0536 14.0625,14.0536 7.7309,0 14.0625,-6.3192 14.0625,-14.0536 v -374.6893 c 0,-9.49 -7.0322,-14.2401 -14.0625,-14.2401 z m 0,451.1364 c -7.0302,0 -14.0625,4.5778 -14.0625,13.7163 v 56.2322 c 0,7.7309 6.3281,14.0625 14.0625,14.0625 7.7309,0 14.0625,-6.3281 14.0625,-14.0625 v -56.2322 c 0,-9.1385 -7.0322,-13.7163 -14.0625,-13.7163 z"
       transform="matrix(0.05820833,0,0,0.05820833,306.16678,149.67066)" /></g><g
     id="layer1"
     style="display:inline"
     transform="matrix(3.7829122,0,0,3.7829122,-47.983252,-41.192441)"><g
       id="g7"
       transform="translate(-14.030934,-41.691919)"><g
         id="g6"><path
           style="fill:#008c8c;stroke:#008c8c;stroke-width:0.587375;stroke-dasharray:none"
           d="m 225.4006,85.394594 c -0.40922,0 -0.81855,0.266466 -0.81855,0.798403 v 3.273182 c 0,0.450003 0.36834,0.818555 0.81855,0.818555 0.45,0 0.81856,-0.368348 0.81856,-0.818555 v -3.273182 c 0,-0.531937 -0.40934,-0.798403 -0.81856,-0.798403 z"
           id="path4" /><path
           style="fill:#008c8c;stroke:#008c8c;stroke-width:0.587375;stroke-dasharray:none"
           d="m 225.4006,59.134697 c -0.40922,0 -0.81855,0.276496 -0.81855,0.828893 v 21.810038 c 0,0.450003 0.36834,0.818037 0.81855,0.818037 0.45,0 0.81856,-0.36783 0.81856,-0.818037 V 59.96359 c 0,-0.552397 -0.40934,-0.828893 -0.81856,-0.828893 z"
           id="path3" /><path
           id="path2"
           style="fill:#008c8c;stroke:#008c8c;stroke-width:1.9214;stroke-dasharray:none;stroke-opacity:1"
           d="m 196.65252,53.541701 c -2.21957,0 -4.0933,1.694385 -4.38113,3.843693 l -0.094,0.01189 v 1.672249 l 0.0558,-0.0067 v 33.736958 h 1.63659 v -34.677986 -0.01705 -0.141593 c 0,-1.514115 1.26866,-2.782776 2.78278,-2.782776 h 34.69969 c 1.55504,0 2.8236,1.268661 2.8236,2.782776 v 34.836632 h 1.63659 v -33.7375 l 0.0196,0.0026 v -1.667598 l -0.0574,-0.0072 c -0.28599,-2.151496 -2.16367,-3.848344 -4.42247,-3.848344 z" /></g><rect
         style="fill:#008c8c;fill-opacity:1;stroke-width:0.228057"
         id="rect4"
         width="374.05045"
         height="3.28"
         x="26.97949"
         y="92.122818" /><use
         x="0"
         y="0"
         xlink:href="#rect4"
         id="use5"
         transform="matrix(0.63837208,0,0,1,145.02362,43.059479)" /><text
         xml:space="preserve"
         transform="matrix(0.39728038,0,0,0.48310098,7.5668741,-63.310842)"
         id="text1"
         style="font-size:85.3333px;line-height:1.25;font-family:Bungee;-inkscape-font-specification:Bungee;white-space:pre;shape-inside:url(#rect1);display:inline;fill:#6a1b2d;fill-opacity:1"><tspan
           x="44.511719"
           y="397.92243"
           id="tspan3">she got cardboard</tspan></text><text
         xml:space="preserve"
         transform="matrix(0.26467689,0,0,0.26458333,-0.50537799,-2.9442379)"
         id="text4"
         style="font-style:normal;font-variant:normal;font-weight:normal;font-stretch:normal;font-size:37.3333px;font-family:Inter;-inkscape-font-specification:Inter;writing-mode:lr-tb;direction:ltr;white-space:pre;shape-inside:url(#rect5);display:inline;fill:#008c8c"><tspan
           x="102.93164"
           y="538.09257"
           id="tspan4">The Future of the Hobby is Her</tspan></text></g></g></svg>
